<svg width="158" height="131" viewBox="0 0 158 131" fill="none" xmlns="http://www.w3.org/2000/svg">
<g clip-path="url(#clip0_44_1722)">
<mask id="mask0_44_1722" style="mask-type:luminance" maskUnits="userSpaceOnUse" x="0" y="0" width="158" height="97">
<path d="M158 0H0V97H158V0Z" fill="white"/>
</mask>
<g mask="url(#mask0_44_1722)">
<g filter="url(#filter0_d_44_1722)">
<path fill-rule="evenodd" clip-rule="evenodd" d="M156.301 10.3929H113.828V53.6964H156.301V10.3929ZM140.811 28.8279C140.427 28.8992 140.006 29.0304 139.55 29.2209C139.55 30.1502 139.514 30.9724 139.442 31.6873C139.394 32.402 139.31 33.0216 139.19 33.5459L134.578 29.1137C134.122 28.6611 133.737 28.2559 133.425 27.8984C133.113 27.5172 132.957 27.1479 132.957 26.7905C132.957 26.2901 133.161 25.9446 133.569 25.754C133.978 25.5633 134.494 25.468 135.119 25.468C135.503 25.468 135.863 25.5037 136.199 25.5753C136.56 25.6466 136.872 25.7421 137.136 25.8612C137.448 25.5514 137.677 25.206 137.821 24.8245C137.989 24.4433 138.073 24.0503 138.073 23.6451C138.073 22.8111 137.761 22.1319 137.136 21.6078C136.512 21.0597 135.443 20.7857 133.93 20.7857C132.873 20.7857 131.924 20.9168 131.083 21.1789C130.267 21.441 129.57 21.8103 128.994 22.287C128.417 22.7635 127.973 23.3235 127.66 23.9668C127.348 24.6101 127.192 25.3012 127.192 26.0398C127.192 26.6118 127.288 27.2194 127.48 27.8627C127.696 28.506 128.045 29.1137 128.525 29.6856C127.973 29.924 127.432 30.2337 126.904 30.6149C126.375 30.9724 125.895 31.4131 125.463 31.9374C125.03 32.4616 124.682 33.0692 124.418 33.7603C124.154 34.4513 124.021 35.2377 124.021 36.1193C124.021 37.1439 124.214 38.0971 124.598 38.9788C124.982 39.8365 125.547 40.587 126.291 41.2305C127.036 41.8739 127.949 42.3743 129.03 42.7316C130.11 43.1129 131.359 43.3036 132.777 43.3036C134.17 43.3036 135.431 43.1129 136.56 42.7316C137.713 42.3743 138.733 41.8739 139.622 41.2305L140.307 41.8739C141.22 42.7794 142.156 43.232 143.117 43.232C143.91 43.232 144.594 42.9462 145.171 42.3743C145.747 41.8023 146.059 41.0637 146.108 40.1582L143.333 37.5132C144.318 35.7738 144.81 33.9391 144.81 32.009C144.81 31.5323 144.774 31.0914 144.702 30.6865C144.63 30.2813 144.486 29.9358 144.27 29.65C144.078 29.3401 143.802 29.1019 143.441 28.9351C143.081 28.7683 142.613 28.6848 142.036 28.6848C141.628 28.6848 141.22 28.7324 140.811 28.8279ZM130.615 37.835C130.062 37.2631 129.786 36.5602 129.786 35.7261C129.786 35.202 129.93 34.7134 130.218 34.2607C130.531 33.808 130.975 33.4504 131.552 33.1884L136.163 37.7992C135.683 38.109 135.179 38.3353 134.65 38.4783C134.122 38.5975 133.617 38.6571 133.137 38.6571C132.032 38.6571 131.191 38.3831 130.615 37.835Z" fill="url(#paint0_linear_44_1722)"/>
</g>
<g filter="url(#filter1_d_44_1722)">
<path d="M10.0661 76.171C8.82025 75.738 7.68762 75.3049 6.66827 74.8719C5.64891 74.4099 4.77113 73.8615 4.03494 73.2264C3.29874 72.5912 2.71827 71.8406 2.29354 70.9746C1.89713 70.0796 1.69891 68.997 1.69891 67.7268C1.69891 65.2729 2.61917 63.3098 4.45967 61.8375C6.32848 60.3652 8.9335 59.629 12.2747 59.629C13.4923 59.629 14.6249 59.7156 15.6726 59.8888C16.7202 60.0621 17.6122 60.3363 18.3484 60.7116C19.1129 61.058 19.7075 61.52 20.1322 62.0973C20.557 62.6459 20.7693 63.2955 20.7693 64.046C20.7693 64.7965 20.5995 65.4461 20.2597 65.9946C19.9199 66.5143 19.5093 66.9617 19.0279 67.3371C18.405 66.933 17.5698 66.5865 16.522 66.2978C15.4744 65.9803 14.3276 65.8214 13.0817 65.8214C11.8075 65.8214 10.8731 66.009 10.2785 66.3844C9.68386 66.7308 9.38655 67.1782 9.38655 67.7268C9.38655 68.1598 9.57059 68.5206 9.9387 68.8094C10.3068 69.0692 10.859 69.3147 11.5952 69.5455L13.8462 70.2817C16.5079 71.1478 18.5466 72.2593 19.9624 73.6161C21.4064 74.9441 22.1285 76.7629 22.1285 79.0723C22.1285 81.5263 21.18 83.5182 19.2828 85.0482C17.3856 86.5495 14.5966 87.3 10.9156 87.3C9.61307 87.3 8.39551 87.1845 7.26289 86.9536C6.15859 86.7514 5.18171 86.4483 4.33225 86.0442C3.51111 85.6112 2.85984 85.0915 2.37848 84.4853C1.92543 83.8501 1.69891 83.1285 1.69891 82.3201C1.69891 81.483 1.9396 80.7755 2.42096 80.1982C2.90231 79.592 3.42616 79.13 3.99246 78.8125C4.7853 79.4477 5.74801 79.9961 6.88063 80.458C8.04156 80.92 9.3016 81.1509 10.6607 81.1509C12.0482 81.1509 13.0251 80.9344 13.5914 80.5013C14.1577 80.0683 14.4408 79.563 14.4408 78.9857C14.4408 78.4084 14.2143 77.9754 13.7613 77.6866C13.3082 77.3691 12.6711 77.066 11.85 76.7772L10.0661 76.171ZM25.0459 73.4429C25.0459 71.1911 25.3857 69.1991 26.0652 67.467C26.7732 65.7348 27.7217 64.2914 28.9109 63.1366C30.1286 61.953 31.5443 61.058 33.1582 60.4518C34.8006 59.8455 36.5702 59.5424 38.4674 59.5424C40.3646 59.5424 42.1201 59.8455 43.7341 60.4518C45.3764 61.058 46.8062 61.953 48.0238 63.1366C49.2415 64.2914 50.19 65.7348 50.8695 67.467C51.5775 69.1991 51.9314 71.1911 51.9314 73.4429C51.9314 76.272 51.4217 78.6826 50.4023 80.6746C49.383 82.6376 47.9955 84.1822 46.24 85.308C46.6647 85.5102 47.1603 85.7267 47.7265 85.9576C48.3211 86.1885 48.9299 86.4196 49.5529 86.6505C50.2041 86.8814 50.8695 87.0979 51.5491 87.3C52.2287 87.5309 52.8658 87.733 53.4604 87.9063C53.4888 88.0795 53.5029 88.2238 53.5029 88.3393C53.5029 88.4836 53.5029 88.6135 53.5029 88.729C53.5029 90.3746 53.0781 91.5727 52.2287 92.3232C51.4076 93.0738 50.3174 93.4491 48.9582 93.4491C47.6557 93.4491 46.3108 93.0738 44.9233 92.3232C43.5358 91.6014 42.1201 90.5478 40.676 89.1621L38.8072 87.3866H38.4674C36.542 87.3866 34.7581 87.0835 33.1158 86.4772C31.4734 85.8421 30.0577 84.9327 28.8685 83.7491C27.6792 82.5655 26.7448 81.1076 26.0652 79.3755C25.3857 77.6433 25.0459 75.6657 25.0459 73.4429ZM32.691 73.4429C32.691 76.07 33.2148 78.033 34.2625 79.3321C35.3103 80.6313 36.7119 81.2808 38.4674 81.2808C40.2513 81.2808 41.667 80.6313 42.7147 79.3321C43.7624 78.033 44.2862 76.07 44.2862 73.4429C44.2862 70.8447 43.7624 68.896 42.7147 67.5969C41.6953 66.2978 40.2937 65.6482 38.5099 65.6482C36.7544 65.6482 35.3385 66.2978 34.2625 67.5969C33.2148 68.8671 32.691 70.8157 32.691 73.4429ZM79.0749 76.9072C79.0749 78.4661 78.806 79.8951 78.2679 81.1942C77.7582 82.4644 77.008 83.5615 76.0168 84.4853C75.0259 85.3803 73.8225 86.0731 72.4066 86.5638C70.9909 87.0546 69.391 87.3 67.6072 87.3C65.8233 87.3 64.2236 87.0546 62.8077 86.5638C61.392 86.0731 60.1886 85.3803 59.1975 84.4853C58.2065 83.5615 57.442 82.4644 56.9039 81.1942C56.3943 79.8951 56.1394 78.4661 56.1394 76.9072V60.3652C56.451 60.3075 56.9464 60.2353 57.626 60.1487C58.3056 60.0331 58.9569 59.9755 59.5798 59.9755C60.2311 59.9755 60.7974 60.0331 61.2787 60.1487C61.7884 60.2353 62.2131 60.4085 62.5529 60.6683C62.8927 60.9281 63.1475 61.2889 63.3174 61.7509C63.4873 62.2129 63.5722 62.8191 63.5722 63.5697V76.7772C63.5722 78.163 63.9404 79.2455 64.6765 80.025C65.441 80.8045 66.4179 81.1942 67.6072 81.1942C68.8248 81.1942 69.8017 80.8045 70.5378 80.025C71.2741 79.2455 71.6421 78.163 71.6421 76.7772V60.3652C71.9537 60.3075 72.4491 60.2353 73.1287 60.1487C73.8082 60.0331 74.4596 59.9755 75.0824 59.9755C75.7338 59.9755 76.3001 60.0331 76.7814 60.1487C77.291 60.2353 77.7158 60.4085 78.0556 60.6683C78.3953 60.9281 78.6502 61.2889 78.8201 61.7509C78.99 62.2129 79.0749 62.8191 79.0749 63.5697V76.9072ZM89.619 61.1447C90.1003 60.8559 90.8223 60.5817 91.7851 60.3219C92.7761 60.0621 93.7672 59.9321 94.7582 59.9321C96.1739 59.9321 97.4199 60.1487 98.4958 60.5817C99.6001 60.9858 100.308 61.6354 100.619 62.5304C101.129 64.0316 101.681 65.7781 102.276 67.7701C102.871 69.7621 103.465 71.8263 104.06 73.9625C104.654 76.07 105.235 78.163 105.801 80.2415C106.367 82.2912 106.863 84.1099 107.288 85.6978C106.948 86.1019 106.438 86.4196 105.759 86.6505C105.079 86.9103 104.272 87.0402 103.338 87.0402C102.658 87.0402 102.078 86.9825 101.596 86.867C101.143 86.7514 100.761 86.5782 100.45 86.3473C100.166 86.1164 99.9258 85.8133 99.7276 85.438C99.5577 85.0626 99.4019 84.6296 99.2603 84.1388L98.4958 81.1509H90.8082C90.5817 82.017 90.3551 82.912 90.1286 83.8357C89.9022 84.7595 89.6755 85.6545 89.4491 86.5205C89.0527 86.6648 88.628 86.7804 88.1749 86.867C87.7501 86.9825 87.2264 87.0402 86.6034 87.0402C85.1593 87.0402 84.0833 86.7947 83.3754 86.304C82.6958 85.7844 82.356 85.0771 82.356 84.1821C82.356 83.778 82.4126 83.3738 82.5259 82.9697C82.6393 82.5655 82.7667 82.0892 82.9082 81.5406C83.1065 80.7612 83.3754 79.7941 83.7152 78.6393C84.0833 77.4845 84.4797 76.2432 84.9044 74.9152C85.3292 73.5584 85.7823 72.1727 86.2636 70.758C86.7449 69.3434 87.198 68.0155 87.6227 66.7741C88.0474 65.5039 88.4297 64.378 88.7695 63.3964C89.1376 62.4148 89.4207 61.6643 89.619 61.1447ZM94.7157 66.7308C94.3194 67.9433 93.8663 69.3001 93.3566 70.8013C92.8753 72.2737 92.4363 73.7749 92.0399 75.3049H97.3066C96.9102 73.746 96.4996 72.2304 96.0749 70.758C95.6785 69.2568 95.3103 67.9144 94.9706 66.7308H94.7157ZM118.159 78.1196V86.4339C117.847 86.5205 117.352 86.6071 116.672 86.6938C116.021 86.7804 115.37 86.8237 114.719 86.8237C114.067 86.8237 113.487 86.766 112.977 86.6505C112.496 86.5638 112.085 86.3906 111.745 86.1308C111.434 85.871 111.193 85.5102 111.023 85.0482C110.853 84.5863 110.769 83.98 110.769 83.2295V62.8335C110.769 62.2272 110.924 61.7653 111.236 61.4478C111.576 61.1013 112.029 60.8271 112.595 60.625C113.558 60.2786 114.676 60.0331 115.95 59.8888C117.224 59.7156 118.584 59.629 120.028 59.629C123.935 59.629 126.88 60.4662 128.862 62.1406C130.844 63.8151 131.835 66.0813 131.835 68.9393C131.835 70.7291 131.382 72.2593 130.476 73.5295C129.57 74.7997 128.494 75.7813 127.248 76.4741C128.267 77.8888 129.273 79.2166 130.264 80.458C131.255 81.6995 132.033 82.8254 132.6 83.8357C132.317 84.8461 131.793 85.6255 131.028 86.1741C130.292 86.6938 129.457 86.9536 128.522 86.9536C127.899 86.9536 127.361 86.8814 126.908 86.7371C126.455 86.5928 126.059 86.3906 125.719 86.1308C125.379 85.871 125.068 85.5535 124.785 85.1781C124.502 84.8028 124.232 84.3987 123.978 83.9656L120.41 78.1196H118.159ZM120.835 72.3603C121.911 72.3603 122.76 72.0861 123.383 71.5375C124.006 70.9602 124.317 70.1229 124.317 69.0259C124.317 67.9289 123.964 67.1062 123.256 66.5576C122.576 65.9803 121.486 65.6915 119.985 65.6915C119.56 65.6915 119.221 65.7059 118.966 65.7348C118.711 65.7638 118.428 65.8071 118.116 65.8647V72.3603H120.835ZM136.651 64.3924C136.651 63.151 137.005 62.1696 137.712 61.4478C138.42 60.726 139.383 60.3652 140.601 60.3652H154.617C154.815 60.6827 154.985 61.1013 155.126 61.621C155.296 62.1406 155.381 62.6892 155.381 63.2665C155.381 64.3635 155.141 65.143 154.659 65.6049C154.206 66.0669 153.597 66.2978 152.833 66.2978H143.871V70.325H153.428C153.626 70.6425 153.796 71.0612 153.937 71.5808C154.107 72.0715 154.192 72.6057 154.192 73.183C154.192 74.28 153.966 75.0595 153.512 75.5214C153.059 75.9834 152.451 76.2143 151.686 76.2143H143.871V80.7612H154.787C154.985 81.0787 155.155 81.4973 155.296 82.017C155.466 82.5366 155.551 83.0852 155.551 83.6625C155.551 84.7595 155.31 85.5535 154.829 86.0442C154.376 86.5062 153.767 86.7371 153.003 86.7371H140.601C139.383 86.7371 138.42 86.3763 137.712 85.6545C137.005 84.9327 136.651 83.9513 136.651 82.7098V64.3924Z" fill="url(#paint1_linear_44_1722)"/>
</g>
<g filter="url(#filter2_d_44_1722)">
<path d="M25.0251 13.5454C25.263 13.9264 25.4668 14.4461 25.6367 15.1043C25.8406 15.7279 25.9425 16.3861 25.9425 17.0789C25.9425 18.43 25.6537 19.4 25.0761 19.9889C24.5324 20.5432 23.7849 20.8204 22.8335 20.8204H12.1303V26.6923H23.2922C23.564 27.0734 23.7849 27.5757 23.9548 28.1993C24.1587 28.8229 24.2606 29.4811 24.2606 30.1739C24.2606 31.4904 23.9718 32.443 23.3942 33.032C22.8505 33.5862 22.103 33.8634 21.1516 33.8634H12.2322V44.8278C11.8585 44.9318 11.2638 45.0357 10.4483 45.1396C9.66684 45.2436 8.88534 45.2955 8.10383 45.2955C7.32233 45.2955 6.62577 45.2262 6.01416 45.0877C5.43652 44.9837 4.94383 44.7759 4.53609 44.4641C4.12835 44.1523 3.82254 43.7193 3.61867 43.165C3.4148 42.6107 3.31287 41.8832 3.31287 40.9825V18.378C3.31287 16.8884 3.7376 15.7105 4.58706 14.8445C5.43652 13.9784 6.59179 13.5454 8.05287 13.5454H25.0251ZM35.4214 14.4807C35.999 14.1343 36.8654 13.8052 38.0207 13.4934C39.21 13.1816 40.3992 13.0257 41.5885 13.0257C43.2874 13.0257 44.7824 13.2855 46.0736 13.8052C47.3988 14.2902 48.2482 15.0696 48.622 16.1436C49.2336 17.945 49.8962 20.0409 50.6097 22.4312C51.3233 24.8216 52.0368 27.2986 52.7504 29.8621C53.4639 32.3911 54.1605 34.9027 54.8401 37.397C55.5196 39.8566 56.1143 42.0391 56.6239 43.9445C56.2162 44.4295 55.6046 44.8105 54.7891 45.0877C53.9736 45.3995 53.0052 45.5553 51.8839 45.5553C51.0685 45.5553 50.3719 45.4861 49.7943 45.3475C49.2506 45.2089 48.7919 45.0011 48.4181 44.7239C48.0783 44.4468 47.7895 44.083 47.5517 43.6327C47.3478 43.1823 47.1609 42.6627 46.991 42.0737L46.0736 38.4882H36.8485C36.5766 39.5275 36.3048 40.6014 36.033 41.71C35.7611 42.8186 35.4893 43.8925 35.2175 44.9318C34.7418 45.105 34.2321 45.2436 33.6885 45.3475C33.1788 45.4861 32.5502 45.5553 31.8026 45.5553C30.0697 45.5553 28.7786 45.2609 27.9291 44.672C27.1136 44.0484 26.7059 43.1996 26.7059 42.1257C26.7059 41.6407 26.7738 41.1557 26.9097 40.6707C27.0457 40.1857 27.1986 39.6141 27.3685 38.9559C27.6063 38.0205 27.9291 36.86 28.3368 35.4743C28.7786 34.0886 29.2543 32.5989 29.7639 31.0053C30.2736 29.3771 30.8173 27.7143 31.3949 26.0168C31.9725 24.3193 32.5162 22.7257 33.0259 21.2361C33.5355 19.7118 33.9943 18.3607 34.402 17.1828C34.8437 16.005 35.1835 15.1043 35.4214 14.4807ZM41.5375 21.1841C41.0618 22.6391 40.5181 24.2673 39.9065 26.0687C39.3289 27.8355 38.8022 29.637 38.3265 31.473H44.6465C44.1708 29.6023 43.6781 27.7836 43.1685 26.0168C42.6928 24.2154 42.251 22.6045 41.8433 21.1841H41.5375ZM69.7203 44.8278C69.3465 44.9318 68.7519 45.0357 67.9364 45.1396C67.1549 45.2436 66.3734 45.2955 65.5919 45.2955C64.8104 45.2955 64.1138 45.2262 63.5022 45.0877C62.9246 44.9837 62.4319 44.7759 62.0241 44.4641C61.6164 44.1523 61.3106 43.7193 61.1067 43.165C60.9028 42.6107 60.8009 41.8832 60.8009 40.9825V13.5454C61.1747 13.4761 61.7693 13.3895 62.5848 13.2855C63.4003 13.147 64.1818 13.0777 64.9293 13.0777C65.7108 13.0777 66.3904 13.147 66.968 13.2855C67.5796 13.3895 68.0893 13.5973 68.497 13.9091C68.9048 14.2209 69.2106 14.6539 69.4145 15.2082C69.6183 15.7625 69.7203 16.49 69.7203 17.3907V44.8278ZM85.1985 34.8507V44.8278C84.8247 44.9318 84.2301 45.0357 83.4146 45.1396C82.6331 45.2436 81.8516 45.2955 81.0701 45.2955C80.2886 45.2955 79.592 45.2262 78.9804 45.0877C78.4028 44.9837 77.9101 44.7759 77.5024 44.4641C77.1286 44.1523 76.8398 43.7193 76.6359 43.165C76.432 42.6107 76.3301 41.8832 76.3301 40.9825V16.5073C76.3301 15.7798 76.517 15.2255 76.8907 14.8445C77.2985 14.4287 77.8421 14.0996 78.5217 13.8571C79.677 13.4414 81.0191 13.147 82.5482 12.9737C84.0772 12.7659 85.7082 12.662 87.4411 12.662C92.1301 12.662 95.6639 13.6666 98.0424 15.6759C100.421 17.6852 101.61 20.4046 101.61 23.8343C101.61 25.9821 101.066 27.8182 99.9791 29.3425C98.8918 30.8668 97.6006 32.0446 96.1056 32.8761C97.3288 34.5736 98.5351 36.1671 99.7243 37.6568C100.914 39.1464 101.848 40.4975 102.528 41.71C102.188 42.9225 101.559 43.8579 100.642 44.5161C99.7583 45.1396 98.7559 45.4514 97.6346 45.4514C96.8871 45.4514 96.2415 45.3648 95.6978 45.1916C95.1542 45.0184 94.6785 44.7759 94.2707 44.4641C93.863 44.1523 93.4892 43.7712 93.1495 43.3209C92.8097 42.8705 92.4869 42.3855 92.1811 41.8659L87.8998 34.8507H85.1985ZM88.4095 27.9395C89.7006 27.9395 90.72 27.6103 91.4675 26.9521C92.2151 26.2593 92.5888 25.2546 92.5888 23.9382C92.5888 22.6218 92.1641 21.6345 91.3146 20.9762C90.4991 20.2834 89.191 19.937 87.3901 19.937C86.8804 19.937 86.4727 19.9543 86.1669 19.9889C85.8611 20.0236 85.5213 20.0755 85.1475 20.1448V27.9395H88.4095Z" fill="url(#paint2_linear_44_1722)"/>
</g>
</g>
</g>
<g clip-path="url(#clip1_44_1722)">
<path fill-rule="evenodd" clip-rule="evenodd" d="M111 106H0V131H111V106ZM4.9834 115.005C4.36048 116.109 4.04901 117.357 4.04901 118.748C4.04901 120.139 4.36048 121.386 4.9834 122.491C5.61958 123.595 6.47445 124.461 7.548 125.089C8.62155 125.702 9.80776 126.009 11.1066 126.009C12.5778 126.009 13.8833 125.641 15.0231 124.905C16.1762 124.168 17.0112 123.118 17.5281 121.755H14.8044C14.4466 122.505 13.9496 123.064 13.3134 123.432C12.6772 123.8 11.9416 123.984 11.1066 123.984C10.1921 123.984 9.37702 123.773 8.66131 123.35C7.94561 122.914 7.38233 122.3 6.97146 121.509C6.57385 120.718 6.37504 119.798 6.37504 118.748C6.37504 117.698 6.57385 116.777 6.97146 115.986C7.38233 115.195 7.94561 114.589 8.66131 114.166C9.37702 113.743 10.1921 113.532 11.1066 113.532C11.9416 113.532 12.6772 113.716 13.3134 114.084C13.9496 114.452 14.4466 115.011 14.8044 115.761H17.5281C17.0112 114.398 16.1762 113.348 15.0231 112.611C13.8833 111.861 12.5778 111.486 11.1066 111.486C9.82101 111.486 8.63481 111.8 7.548 112.427C6.47445 113.041 5.61958 113.9 4.9834 115.005ZM23.5208 125.109C24.6076 125.723 25.7939 126.03 27.0795 126.03C28.3783 126.03 29.5645 125.723 30.6381 125.109C31.7249 124.482 32.5798 123.616 33.2027 122.511C33.8256 121.393 34.1371 120.139 34.1371 118.748C34.1371 117.357 33.8256 116.109 33.2027 115.005C32.5798 113.9 31.7249 113.041 30.6381 112.427C29.5645 111.8 28.3783 111.486 27.0795 111.486C25.7939 111.486 24.6076 111.8 23.5208 112.427C22.4473 113.041 21.5924 113.9 20.9562 115.005C20.3333 116.109 20.0218 117.357 20.0218 118.748C20.0218 120.139 20.3333 121.393 20.9562 122.511C21.5924 123.616 22.4473 124.482 23.5208 125.109ZM29.5248 123.37C28.8091 123.793 27.9939 124.005 27.0795 124.005C26.1649 124.005 25.3499 123.793 24.6341 123.37C23.9184 122.934 23.3552 122.32 22.9443 121.53C22.5467 120.725 22.3479 119.798 22.3479 118.748C22.3479 117.698 22.5467 116.777 22.9443 115.986C23.3552 115.195 23.9184 114.589 24.6341 114.166C25.3499 113.743 26.1649 113.532 27.0795 113.532C27.9939 113.532 28.8091 113.743 29.5248 114.166C30.2405 114.589 30.7971 115.195 31.1948 115.986C31.6056 116.777 31.8111 117.698 31.8111 118.748C31.8111 119.798 31.6056 120.725 31.1948 121.53C30.7971 122.32 30.2405 122.934 29.5248 123.37ZM51.5163 125.886V111.67H49.0908L44.2598 122.818L39.409 111.67H36.9637V125.886H39.2301V116.15L43.4646 125.886H45.0352L49.2499 116.15V125.886H51.5163ZM64.2563 117.95C64.5876 117.309 64.7533 116.627 64.7533 115.905C64.7533 115.114 64.5678 114.398 64.1967 113.757C63.8388 113.116 63.2888 112.611 62.5466 112.243C61.8176 111.861 60.923 111.67 59.8627 111.67H55.0915V125.886H57.3577V120.118H59.8627C61.0025 120.118 61.9369 119.92 62.6659 119.525C63.3948 119.116 63.925 118.591 64.2563 117.95ZM61.7911 117.623C61.367 118.018 60.7242 118.216 59.8627 118.216H57.3577V113.573H59.8627C61.5724 113.573 62.4273 114.35 62.4273 115.905C62.4273 116.641 62.2152 117.214 61.7911 117.623ZM70.0559 122.982H75.8412L76.8352 125.886H79.2209L74.2706 111.65H71.6464L66.6961 125.886H69.0619L70.0559 122.982ZM72.9585 114.473L75.205 121.08H70.6921L72.9585 114.473ZM91.0553 125.886H93.3217V111.65H91.0553V122.245L84.2363 111.65H81.9699V125.886H84.2363V115.27L91.0553 125.886ZM102.56 120.732L107.133 111.67H104.628L101.427 118.645L98.2262 111.67H95.7013L100.294 120.732V125.886H102.56V120.732Z" fill="url(#paint3_linear_44_1722)"/>
</g>
<defs>
<filter id="filter0_d_44_1722" x="109.828" y="10.3929" width="50.4731" height="51.3036" filterUnits="userSpaceOnUse" color-interpolation-filters="sRGB">
<feFlood flood-opacity="0" result="BackgroundImageFix"/>
<feColorMatrix in="SourceAlpha" type="matrix" values="0 0 0 0 0 0 0 0 0 0 0 0 0 0 0 0 0 0 127 0" result="hardAlpha"/>
<feOffset dy="4"/>
<feGaussianBlur stdDeviation="2"/>
<feComposite in2="hardAlpha" operator="out"/>
<feColorMatrix type="matrix" values="0 0 0 0 0 0 0 0 0 0 0 0 0 0 0 0 0 0 0.25 0"/>
<feBlend mode="normal" in2="BackgroundImageFix" result="effect1_dropShadow_44_1722"/>
<feBlend mode="normal" in="SourceGraphic" in2="effect1_dropShadow_44_1722" result="shape"/>
</filter>
<filter id="filter1_d_44_1722" x="-0.301086" y="59.5424" width="157.852" height="37.9067" filterUnits="userSpaceOnUse" color-interpolation-filters="sRGB">
<feFlood flood-opacity="0" result="BackgroundImageFix"/>
<feColorMatrix in="SourceAlpha" type="matrix" values="0 0 0 0 0 0 0 0 0 0 0 0 0 0 0 0 0 0 127 0" result="hardAlpha"/>
<feOffset dy="2"/>
<feGaussianBlur stdDeviation="1"/>
<feComposite in2="hardAlpha" operator="out"/>
<feColorMatrix type="matrix" values="0 0 0 0 0 0 0 0 0 0 0 0 0 0 0 0 0 0 0.25 0"/>
<feBlend mode="normal" in2="BackgroundImageFix" result="effect1_dropShadow_44_1722"/>
<feBlend mode="normal" in="SourceGraphic" in2="effect1_dropShadow_44_1722" result="shape"/>
</filter>
<filter id="filter2_d_44_1722" x="1.31287" y="12.662" width="103.215" height="36.8934" filterUnits="userSpaceOnUse" color-interpolation-filters="sRGB">
<feFlood flood-opacity="0" result="BackgroundImageFix"/>
<feColorMatrix in="SourceAlpha" type="matrix" values="0 0 0 0 0 0 0 0 0 0 0 0 0 0 0 0 0 0 127 0" result="hardAlpha"/>
<feOffset dy="2"/>
<feGaussianBlur stdDeviation="1"/>
<feComposite in2="hardAlpha" operator="out"/>
<feColorMatrix type="matrix" values="0 0 0 0 0 0 0 0 0 0 0 0 0 0 0 0 0 0 0.25 0"/>
<feBlend mode="normal" in2="BackgroundImageFix" result="effect1_dropShadow_44_1722"/>
<feBlend mode="normal" in="SourceGraphic" in2="effect1_dropShadow_44_1722" result="shape"/>
</filter>
<linearGradient id="paint0_linear_44_1722" x1="137.424" y1="14.6029" x2="134.972" y2="53.6906" gradientUnits="userSpaceOnUse">
<stop stop-color="#989898"/>
<stop offset="1" stop-color="#454545"/>
</linearGradient>
<linearGradient id="paint1_linear_44_1722" x1="79" y1="41.5714" x2="79" y2="110.857" gradientUnits="userSpaceOnUse">
<stop/>
<stop offset="1" stop-color="#7D7D7D"/>
</linearGradient>
<linearGradient id="paint2_linear_44_1722" x1="52.6666" y1="-10.3929" x2="52.6666" y2="72.75" gradientUnits="userSpaceOnUse">
<stop/>
<stop offset="1" stop-color="#7D7D7D"/>
</linearGradient>
<linearGradient id="paint3_linear_44_1722" x1="6.07463" y1="109.977" x2="111.213" y2="129.877" gradientUnits="userSpaceOnUse">
<stop stop-color="#3A1078"/>
<stop offset="1" stop-color="#307383"/>
</linearGradient>
<clipPath id="clip0_44_1722">
<rect width="158" height="97" fill="white"/>
</clipPath>
<clipPath id="clip1_44_1722">
<rect y="106" width="111" height="25" rx="10" fill="white"/>
</clipPath>
</defs>
</svg>
